<svg xmlns:dc="http://purl.org/dc/elements/1.1/" xmlns:cc="http://creativecommons.org/ns#" xmlns:rdf="http://www.w3.org/1999/02/22-rdf-syntax-ns#" xmlns:svg="http://www.w3.org/2000/svg" xmlns="http://www.w3.org/2000/svg" version="1.1" height="73.546448" width="66.145836" style="">
   <g id="g4784">
      <path style="fill:none;stroke:#000000;stroke-width:4.9000001;stroke-linecap:round;stroke-linejoin:round;stroke-miterlimit:4;stroke-dasharray:none;stroke-opacity:1" d="m11.700218670476715,7.129041397735364 c12.884502138458515,-6.369646932674868 26.771973297689783,-8.326237786906631 42.99644842861835,0 " id="path4769" stroke-width="0"/>
      <path style="fill:none;stroke:#000000;stroke-width:4.9000001;stroke-linecap:round;stroke-linejoin:round;stroke-miterlimit:4;stroke-dasharray:none;stroke-opacity:1" d="M1.6425686093180047,26.490019288057283 C14.042370269936328,7.468807668918998 48.69137882638597,3.0436292252697967 64.50287641625528,26.23857346875411 " id="path4771" stroke-width="0"/>
      <path style="fill:none;stroke:#000000;stroke-width:4.9000001;stroke-linecap:round;stroke-linejoin:round;stroke-miterlimit:4;stroke-dasharray:none;stroke-opacity:1" d="m7.425715871892862,60.434575556206255 c0,0 -10.780638630943145,-23.62352580875381 9.554767304335542,-36.20752803944015 c12.045017562913927,-7.453726300630194 26.124024376288617,-5.453664827480338 35.20177013875082,2.01152341433567 c6.692662795205763,5.503789805234874 9.86048399089617,14.483594875813196 9.429045663510124,20.366738328663587 c-0.3035426123985214,4.139149498319512 -3.8592366123246222,8.585556038167226 -7.794678289867534,8.92617369170938 c-6.940275490656347,0.6006830451614285 -11.62018537896995,-4.4718845692949 -11.040534832523122,-8.64683653558808 c0.7380997343301559,-6.525916197900472 -6.018787948720217,-9.815067627049928 -9.703365880964384,-9.834100019565255 c-5.80512777269081,0.025212230190463814 -9.150783837565939,4.997376539600111 -9.4366725776041,9.436671308777932 c-0.8121664309477126,12.611356854035535 11.380544718330952,23.67796352665232 20.204196621278015,25.424764124666126 " id="path4773" stroke-width="0"/>
      <path style="fill:none;stroke:#000000;stroke-width:4.9000001;stroke-linecap:round;stroke-linejoin:round;stroke-miterlimit:4;stroke-dasharray:none;stroke-opacity:1" d="m25.20088436600963,71.19196802293118 c-4.957740313360773,-4.214872726800621 -12.450822429647246,-15.808699828169551 -10.949694491873629,-27.794532994491647 c1.1868274835853043,-9.47628596497242 12.494626115434357,-16.035663646567173 21.261850781051976,-14.965354214596687 c12.21893175924049,1.4916991319182529 17.094268157140732,12.561264865761359 16.645476728672293,18.01576838733854 " id="path4775" stroke-width="0"/>
      <path style="fill:none;stroke:#000000;stroke-width:4.9000001;stroke-linecap:round;stroke-linejoin:round;stroke-miterlimit:4;stroke-dasharray:none;stroke-opacity:1" d="m32.93499904524106,46.211663554197 c0.16751962964795553,10.125830435279454 9.36188669445437,20.11015249455511 22.93565707846483,17.512886899341538 " id="path4777" stroke-width="0"/>
   </g>
</svg>
