<?xml version="1.0" encoding="UTF-8" standalone="no"?>
<svg
	xmlns:dc="http://purl.org/dc/elements/1.1/"
	xmlns:cc="http://creativecommons.org/ns#"
	xmlns:rdf="http://www.w3.org/1999/02/22-rdf-syntax-ns#"
	xmlns:svg="http://www.w3.org/2000/svg"
	xmlns="http://www.w3.org/2000/svg"
	id="svg8"
	version="1.1"
	viewBox="0 0 149.86756 149.86756"
	height="64"
	width="64">
	<defs
		id="defs2" />
	<metadata
		id="metadata5">
		<rdf:RDF>
		<cc:Work
			rdf:about="">
			<dc:format>image/svg+xml</dc:format>
			<dc:type
			rdf:resource="http://purl.org/dc/dcmitype/StillImage" />
			<dc:title></dc:title>
		</cc:Work>
		</rdf:RDF>
	</metadata>
	<g
		transform="translate(108.208,-77.247297)"
		id="layer1">
		<circle
		r="73.610863"
		cy="152.18108"
		cx="-33.274223"
		id="path4822"
		style="opacity:1;fill:#6499e7;fill-opacity:1;stroke:none;stroke-width:0.57699996;stroke-linecap:round;stroke-linejoin:round;stroke-miterlimit:4;stroke-dasharray:none" />
		<g
		transform="translate(25.339409,4.5930833e-6)"
		id="g4845">
		<g
			style="stroke:#cedbee;stroke-opacity:1"
			id="g4784"
			transform="matrix(0.66523035,0,0,0.66523035,-22.211009,63.256162)">
			<path
			id="path4769"
			d="m -48.758927,89.113094 c 19.368483,-9.5751 40.2446657,-12.516323 64.633927,0"
			style="fill:none;stroke:#cedbee;stroke-width:4.9000001;stroke-linecap:round;stroke-linejoin:round;stroke-miterlimit:4;stroke-dasharray:none;stroke-opacity:1" />
			<path
			id="path4771"
			d="M -63.877975,118.21726 C -45.238114,89.623843 6.8476214,82.971738 30.616072,117.83928"
			style="fill:none;stroke:#cedbee;stroke-width:4.9000001;stroke-linecap:round;stroke-linejoin:round;stroke-miterlimit:4;stroke-dasharray:none;stroke-opacity:1" />
			<path
			id="path4773"
			d="m -55.184523,169.24404 c 0,0 -16.205873,-35.5118 14.363096,-54.42856 18.106536,-11.20473 39.2706444,-8.19816 52.916665,3.0238 10.06067,8.27351 14.822661,21.7723 14.174107,30.61607 -0.456297,6.22213 -5.801354,12.90614 -11.717262,13.41817 -10.4328911,0.90297 -17.4679125,-6.72231 -16.5965599,-12.99826 1.10954007,-9.81001 -9.0476751,-14.75439 -14.5864751,-14.783 -8.726493,0.0379 -13.755813,7.51225 -14.185572,14.18557 -1.22088,18.95788 17.107676,35.59363 30.37173044,38.21949"
			style="fill:none;stroke:#cedbee;stroke-width:4.9000001;stroke-linecap:round;stroke-linejoin:round;stroke-miterlimit:4;stroke-dasharray:none;stroke-opacity:1" />
			<path
			id="path4775"
			d="m -28.464205,185.41497 c -7.452667,-6.33596 -18.716559,-23.76425 -16.460004,-41.78182 1.784085,-14.24512 18.782406,-24.10543 31.961637,-22.4965 18.367971,2.24238 25.696765,18.88258 25.022126,27.082"
			style="fill:none;stroke:#cedbee;stroke-width:4.9000001;stroke-linecap:round;stroke-linejoin:round;stroke-miterlimit:4;stroke-dasharray:none;stroke-opacity:1" />
			<path
			id="path4777"
			d="m -16.83798,147.8636 c 0.251822,15.22154 14.0731511,30.23036 34.477769,26.32605"
			style="fill:none;stroke:#cedbee;stroke-width:4.9000001;stroke-linecap:round;stroke-linejoin:round;stroke-miterlimit:4;stroke-dasharray:none;stroke-opacity:1" />
		</g>
		<path
			style="fill:#cedbee;fill-opacity:1;stroke:none;stroke-width:0.57700002;stroke-linecap:butt;stroke-linejoin:miter;stroke-miterlimit:4;stroke-dasharray:none;stroke-opacity:1"
			d="m -87.22538,116.62665 c -7.660357,-0.0691 -15.93601,1.02049 -17.28259,3.00587 -5.83562,9.47297 -4.48347,30.2504 4.532466,44.60123 l -0.515996,19.8806 c 0,2.19747 1.855096,3.22739 3.400186,3.39905 l 16.480418,0.10362 c 0,0 2.957473,-0.36305 2.575486,-3.60522 l 0.206173,-19.77696 c 9.891114,-17.04223 9.83388,-37.01958 3.810281,-45.21975 -1.663281,-1.57968 -7.248366,-2.33475 -13.206424,-2.38847 z m -1.5232,18.14784 a 7.7254984,7.7770008 0 0 1 7.725332,7.77717 7.7254984,7.7770008 0 0 1 -7.725332,7.77716 7.7254984,7.7770008 0 0 1 -7.725344,-7.77716 7.7254984,7.7770008 0 0 1 7.725344,-7.77717 z m 5.417978,28.84186 h 2.781671 v 19.98313 h -2.781671 z m -14.379242,0.1025 h 2.781667 v 19.98312 h -2.781667 z m 4.792707,0 h 2.781677 v 16.68771 h -2.781677 z m 4.793837,0 h 2.780533 v 16.68771 H -88.1233 Z"
			id="path4797" />
		</g>
	</g>
</svg>
